<svg width="114" height="102" viewBox="0 0 114 102" fill="none" xmlns="http://www.w3.org/2000/svg">
<path d="M113.058 40.6687H113.024C112.981 39.3748 112.857 38.0992 112.681 36.8464C112.587 36.1744 112.471 35.5068 112.338 34.853C112.313 34.7341 112.296 34.6107 112.27 34.4918C110.994 28.4932 108.21 23.1028 104.398 18.9742C99.9649 14.1689 94.5598 9.75683 88.7392 7.12788C78.4215 2.46893 67.4442 0.201172 56.7667 0C46.0849 0.0914417 35.0905 2.24032 24.7257 6.78498C18.8837 9.34992 13.4357 13.7025 8.95572 18.4621C3.82899 23.912 0.492543 31.6251 0.12849 40.0652H0.0942258L0.0856596 41.4368L0.0642446 47.312L0.0599619 48.4138L0.04283 52.4556L0.00856617 59.4326L0 60.8042H0.0342638C0.321224 69.2488 3.58058 76.9939 8.6602 82.4987C13.0931 87.304 18.4982 91.7161 24.3188 94.345C34.6365 99.004 45.6138 101.272 56.2913 101.473C66.973 101.381 77.9675 99.2326 88.3323 94.6879C94.1743 92.123 99.6222 87.7704 104.102 83.0108C109.233 77.5609 112.565 69.8478 112.929 61.4077H112.964L112.972 60.0361L113.007 53.0591L113.024 49.0173L113.058 42.0403V40.6687ZM66.0008 48.7567C65.8809 48.8116 65.7524 48.8619 65.6325 48.9122C65.5297 48.9533 65.4269 48.9991 65.3198 49.0402C65.1956 49.0905 65.0671 49.1362 64.9429 49.1819C64.8358 49.2231 64.7288 49.2642 64.6174 49.3008C64.4889 49.3465 64.3604 49.3877 64.2319 49.4288C64.1206 49.4654 64.0092 49.5066 63.8936 49.5386C63.7651 49.5797 63.6323 49.6163 63.5038 49.6529C63.3882 49.6849 63.2683 49.7214 63.1483 49.7534C63.0198 49.79 62.8871 49.822 62.7543 49.854C62.6301 49.886 62.5102 49.918 62.386 49.9455C62.2532 49.9775 62.1204 50.0049 61.9876 50.0323C61.8592 50.0598 61.7307 50.0872 61.6022 50.1146C61.4694 50.1421 61.3366 50.1649 61.2039 50.1878C61.0711 50.2107 60.9383 50.2381 60.8013 50.261C60.6685 50.2838 60.5357 50.3021 60.4029 50.3204C60.2659 50.3387 60.1288 50.3615 59.9875 50.3798C59.8547 50.3981 59.7177 50.4118 59.5806 50.4255C59.4393 50.4393 59.3022 50.4575 59.1609 50.4713C59.0238 50.485 58.8868 50.4941 58.7497 50.5033C58.6084 50.517 58.4627 50.5261 58.3171 50.5353C58.1801 50.5444 58.0387 50.549 57.9017 50.5536C57.7561 50.5627 57.6104 50.5673 57.4648 50.5718C57.3235 50.5764 57.1821 50.5764 57.0408 50.581C56.8695 50.5856 56.6982 50.5856 56.5268 50.5856C55.3619 50.581 54.2269 50.4941 53.1304 50.3432C52.5822 50.2655 52.0426 50.1741 51.5157 50.0644C49.9353 49.7352 48.4534 49.2551 47.1086 48.6561C46.9244 48.5738 46.7488 48.4916 46.5732 48.4047C49.1387 46.8045 52.7021 45.8717 56.424 45.8717H56.5483C60.3173 45.89 63.9193 46.8639 66.4976 48.5098C66.4291 48.5418 66.3606 48.5739 66.292 48.6059C66.1978 48.6699 66.0993 48.7156 66.0008 48.7567ZM31.2315 37.6191L31.9297 44.8156C32.0282 45.8215 31.3429 46.7176 30.4006 46.8227C29.4584 46.9279 28.6189 46.1964 28.5204 45.1905L27.8223 37.994C27.7238 36.9882 28.409 36.0921 29.3513 35.9869C30.2936 35.8817 31.133 36.6133 31.2315 37.6191ZM67.5941 8.5498L61.1867 10.9044C60.2916 11.2336 59.3151 10.7261 59.011 9.77055C58.7069 8.81498 59.178 7.77255 60.0732 7.44793L66.4805 5.09331C67.3756 4.76412 68.3522 5.27162 68.6563 6.22718C68.9646 7.17818 68.4892 8.22061 67.5941 8.5498ZM70.5451 45.8123C70.4594 45.8946 70.3652 45.9769 70.2752 46.0592C70.2067 46.1186 70.1424 46.1826 70.0739 46.2421C69.9797 46.3198 69.8855 46.3975 69.7912 46.4753C69.787 46.4798 69.7784 46.4844 69.7741 46.489C66.6989 43.924 61.932 42.2598 56.5654 42.2324C56.5183 42.2324 56.4712 42.2324 56.424 42.2324C51.1174 42.2324 46.389 43.8372 43.3181 46.3472C42.8084 45.922 42.3502 45.474 41.939 45.0076C41.7934 44.843 41.6563 44.6784 41.5278 44.5093C40.9796 43.8006 40.5427 43.0508 40.2386 42.2689C40.1701 42.0906 40.1102 41.9169 40.0545 41.734C39.836 41.0208 39.7204 40.2847 39.7247 39.5303C39.7632 33.4905 47.2542 28.635 56.4926 28.635C56.5397 28.635 56.5868 28.635 56.6339 28.635C65.9366 28.6853 73.4575 33.6414 73.4404 39.7131C73.4404 39.896 73.4318 40.0835 73.4146 40.2664C73.4104 40.3167 73.4018 40.367 73.3975 40.4218C73.3847 40.5544 73.3718 40.6916 73.3504 40.8242C73.3376 40.8973 73.3204 40.975 73.3076 41.0482C73.2862 41.1579 73.269 41.2677 73.2433 41.3728C73.2262 41.4551 73.2005 41.5328 73.1748 41.6106C73.1491 41.7111 73.1234 41.8117 73.0891 41.9123C73.0634 41.9992 73.0292 42.0815 72.9992 42.1684C72.9649 42.2598 72.935 42.3512 72.9007 42.4427C72.8664 42.5341 72.8236 42.621 72.7851 42.7079C72.7465 42.7902 72.7122 42.877 72.6737 42.9593C72.6309 43.0508 72.5795 43.1376 72.5324 43.2245C72.4895 43.3068 72.451 43.3845 72.4039 43.4668C72.3525 43.5583 72.2925 43.6497 72.2368 43.7412C72.1897 43.8143 72.1469 43.892 72.0998 43.9652C72.0398 44.0566 71.9756 44.1481 71.9113 44.2395C71.8599 44.3081 71.8171 44.3812 71.7614 44.4498C71.6929 44.5413 71.6201 44.6281 71.5473 44.7196C71.4959 44.7882 71.4445 44.8522 71.3888 44.9207C71.316 45.0122 71.2346 45.0991 71.1532 45.1859C71.0976 45.2499 71.0419 45.3139 70.9819 45.378C70.9005 45.4648 70.8149 45.5471 70.7292 45.634C70.6693 45.6889 70.6093 45.7529 70.5451 45.8123ZM47.524 19.7651C48.4363 20.0349 48.9717 21.0453 48.719 22.0146C48.4663 22.9839 47.5197 23.56 46.6117 23.2902L40.0802 21.3562C39.1679 21.0865 38.6325 20.076 38.8852 19.1068C39.1379 18.1375 40.0845 17.5614 40.9925 17.8311L47.524 19.7651ZM76.5798 23.025L69.8084 23.3222C68.8618 23.3634 68.0652 22.577 68.0267 21.5711C67.9881 20.5607 68.7248 19.7103 69.667 19.6691L76.4384 19.3719C77.385 19.3308 78.1816 20.1172 78.2202 21.123C78.263 22.1289 77.5263 22.9839 76.5798 23.025ZM7.22968 40.5087L9.82089 33.8243C10.1807 32.8916 11.1829 32.4481 12.0609 32.8322C12.9346 33.2162 13.3501 34.2861 12.9903 35.2234L10.3991 41.9077C10.0393 42.8405 9.0371 43.2839 8.15909 42.8999C7.28107 42.5113 6.86562 41.4414 7.22968 40.5087ZM13.0203 51.2119L19.7231 50.1329C20.6568 49.9821 21.5306 50.6679 21.6719 51.6692C21.8132 52.6659 21.1708 53.5986 20.2328 53.7495L13.53 54.8285C12.5963 54.9793 11.7225 54.2935 11.5812 53.2922C11.4399 52.291 12.0823 51.3628 13.0203 51.2119ZM17.6759 21.6488C16.8022 21.2648 16.3867 20.1949 16.7465 19.2576C17.1062 18.3249 18.1085 17.8814 18.9865 18.2655L25.2482 21.0316C26.1219 21.4157 26.5374 22.4855 26.1776 23.4228C25.8178 24.3601 24.8156 24.799 23.9376 24.4149L17.6759 21.6488ZM26.8458 61.6546L32.7134 58.0381C33.5315 57.5351 34.5808 57.8323 35.0519 58.7056C35.5231 59.5789 35.2447 60.699 34.4266 61.202L28.5589 64.8185C27.7409 65.3214 26.6916 65.0242 26.2204 64.151C25.7493 63.2777 26.0277 62.1621 26.8458 61.6546ZM32.6749 11.6177C31.7326 11.7228 30.8932 10.9913 30.7947 9.98544C30.6962 8.97958 31.3814 8.08345 32.3237 7.97829L39.0651 7.23304C40.0074 7.12788 40.8468 7.85942 40.9453 8.86528C41.0438 9.87114 40.3586 10.7673 39.4163 10.8724L32.6749 11.6177ZM38.534 70.401C38.7867 69.4271 39.729 68.8556 40.6412 69.1254L47.1728 71.0594C48.0851 71.3291 48.6204 72.3396 48.3678 73.3088C48.1151 74.2827 47.1728 74.8542 46.2605 74.5845L39.729 72.6505C38.8167 72.3807 38.2813 71.3749 38.534 70.401ZM51.867 59.3457C52.2267 58.413 53.2289 57.9695 54.107 58.3535L60.3687 61.1197C61.2424 61.5037 61.6579 62.5736 61.2981 63.5109C60.9383 64.4481 59.9361 64.8871 59.0581 64.503L52.7964 61.7369C51.9184 61.3528 51.5029 60.283 51.867 59.3457ZM66.1636 70.2775L72.224 67.0359C73.0677 66.5833 74.0999 66.9491 74.5239 67.8498C74.948 68.7505 74.6053 69.8523 73.7616 70.305L67.7011 73.5466C66.8574 73.9992 65.8252 73.6335 65.4012 72.7328C64.9772 71.8275 65.3198 70.7302 66.1636 70.2775ZM77.7362 57.1282C78.1088 56.2001 79.1153 55.7703 79.9847 56.1681L86.2122 59.0256C87.0817 59.4234 87.4843 60.4979 87.1116 61.426C86.739 62.3541 85.7325 62.7839 84.8631 62.3861L78.6356 59.5286C77.7662 59.1308 77.3636 58.0564 77.7362 57.1282ZM85.5698 45.4511C85.2571 46.4067 84.2806 46.9096 83.3854 46.5759C82.4903 46.2421 82.0192 45.1996 82.3318 44.2441L84.5675 37.4134C84.8802 36.4578 85.8567 35.9549 86.7519 36.2887C87.647 36.6224 88.1181 37.6649 87.8055 38.6204L85.5698 45.4511ZM86.4992 20.3961L83.4625 13.9266C83.0385 13.0259 83.3812 11.924 84.2249 11.4714C85.0686 11.0187 86.1009 11.3845 86.5249 12.2852L89.5615 18.7547C89.9855 19.6554 89.6429 20.7573 88.7991 21.2099C87.9554 21.6625 86.9232 21.2968 86.4992 20.3961ZM100.624 45.1311C101.447 45.634 101.729 46.7496 101.258 47.6274L97.8876 53.9049C97.4165 54.7827 96.3715 55.0845 95.5491 54.5816C94.7268 54.0786 94.4441 52.9631 94.9152 52.0852L98.2859 45.8077C98.7571 44.9299 99.8021 44.6281 100.624 45.1311ZM101.922 34.8987C102.183 35.868 101.657 36.883 100.749 37.1619C99.8407 37.4408 98.8898 36.8785 98.6286 35.9092L96.7569 28.955C96.4957 27.9857 97.0225 26.9707 97.9305 26.6918C98.8384 26.4129 99.7893 26.9753 100.051 27.9446L101.922 34.8987ZM109.537 60.4841L109.503 61.2431C109.19 68.4807 106.338 75.4714 101.682 80.423C97.0096 85.3883 91.9428 89.1511 87.026 91.3092C77.5306 95.4743 66.9088 97.7238 56.3084 97.8198C45.7037 97.6095 35.1076 95.2457 25.6508 90.98C20.7553 88.7716 15.7228 84.9539 11.0972 79.9384C6.48444 74.9411 3.7005 67.9184 3.45637 60.6762L3.43067 59.9172L3.43495 59.4554L3.45637 54.8422C5.90624 58.6416 10.155 63.6617 12.4806 64.9191C14.969 66.2633 15.9113 72.1841 18.9522 73.382C21.9931 74.5799 27.6724 75.0554 30.2978 76.3996C32.9233 77.7438 34.1525 81.5935 37.0607 81.9089C39.9688 82.2198 41.7762 80.6013 45.2369 81.0677C48.6975 81.5295 52.0169 82.4347 58.6641 82.7685C65.3112 83.0977 73.4917 81.6666 78.4814 80.6562C83.4711 79.6458 86.6876 73.3088 88.7691 72.431C90.8507 71.5532 93.6132 72.9019 96.1145 72.0287C98.6115 71.1554 104.038 65.8609 106.141 60.9916C107.79 57.1648 108.664 55.4411 109.567 54.2295L109.542 60.0269L109.537 60.4841Z" fill="url(#paint0_linear_232_882)"/>
<defs>
<linearGradient id="paint0_linear_232_882" x1="36.0334" y1="-29.6651" x2="81.9832" y2="83.3383" gradientUnits="userSpaceOnUse">
<stop stop-color="#FF59EE"/>
<stop offset="1" stop-color="#FF5C89"/>
</linearGradient>
</defs>
</svg>
